<?xml version="1.0" encoding="utf-8"?>
<!-- Generator: Adobe Illustrator 16.0.0, SVG Export Plug-In . SVG Version: 6.00 Build 0)  -->
<!DOCTYPE svg PUBLIC "-//W3C//DTD SVG 1.1//EN" "http://www.w3.org/Graphics/SVG/1.1/DTD/svg11.dtd">
<svg version="1.1" id="Layer_1" xmlns="http://www.w3.org/2000/svg" xmlns:xlink="http://www.w3.org/1999/xlink" x="0px" y="0px"
	 width="124px" height="40px" viewBox="0 0 124 40" enable-background="new 0 0 124 40" xml:space="preserve">
<g>
	<path fill="#07509F" d="M116.499,17.05c0-1.657,0.972-2.781,2.37-2.781c1.372,0,2.366,1.124,2.366,2.781v14.171
		c0,1.676-0.994,2.773-2.364,2.773c-1.4,0-2.372-1.098-2.372-2.773V17.05L116.499,17.05z M104.453,19.213h-1.105
		c-1.354,0-2.181-0.869-2.181-2.29c0-1.303,0.932-2.274,2.181-2.274h1.104v-2.681c0-3.833,2.174-5.952,5.202-5.952
		c1.751,0,3.442,0.558,3.442,2.356c0,1.527-0.648,2.21-2.034,2.21c-0.825,0-1.649,0-1.649,1.915v2.151h1.549
		c1.486,0,2.521,0.611,2.521,2.274c0,1.633-1.08,2.29-2.521,2.29h-1.549v12.029c0,1.752-1.031,2.898-2.484,2.898
		c-1.452,0-2.475-1.146-2.475-2.898V19.213z"/>
	<path fill="#F15C25" d="M92.818,17.05c0-1.657,0.973-2.781,2.371-2.781c1.372,0,2.367,1.124,2.367,2.781v14.171
		c0,1.676-0.995,2.773-2.367,2.773c-1.398,0-2.371-1.098-2.371-2.773V17.05L92.818,17.05z M68.601,24.377
		c0-5.868,4.501-10.2,9.989-10.2c5.418,0,9.946,4.392,9.946,10.2v7.018c0,1.752-1.061,2.691-2.469,2.691
		c-1.414,0-2.458-0.939-2.458-2.691v-6.738c0-3.049-2.042-5.709-5.02-5.709c-3.121,0-5.064,2.531-5.064,5.709v6.738
		c0,1.752-1.055,2.691-2.469,2.691c-1.408,0-2.456-0.939-2.456-2.691V24.377L68.601,24.377z M45.462,16.872
		c0-1.728,1.035-2.695,2.451-2.695c1.418,0,2.463,0.969,2.463,2.695v6.753c0,3.189,1.927,5.717,5.06,5.717
		c2.985,0,5.021-2.678,5.021-5.717v-6.753c0-1.728,1.058-2.695,2.473-2.695c1.405,0,2.449,0.969,2.449,2.695v7.036
		c0,5.789-4.524,10.18-9.943,10.18c-5.487,0-9.974-4.303-9.974-10.18V16.872z"/>
	<path fill="#07509F" d="M17.238,11.066c0,1.392-1.076,2.523-2.389,2.523c-1.336,0-2.39-1.132-2.39-2.523
		c0-1.38,1.054-2.512,2.39-2.512C16.164,8.555,17.238,9.687,17.238,11.066z M30.444,11.066c0,1.392-1.058,2.523-2.386,2.523
		c-1.314,0-2.399-1.132-2.399-2.523c0-1.38,1.084-2.512,2.399-2.512C29.386,8.555,30.444,9.687,30.444,11.066z"/>
	<path fill="#F15C25" d="M30.448,27.936c0,0,0.022,0.816,0.372,1.549c0.363,0.766,0.899,1.09,1.798,1.09
		c3.597,0,4.518-6.934,4.518-10.603v0.025c0-8.885-6.903-16.114-15.354-16.114c-8.45,0-15.325,7.229-15.325,16.114
		c0,8.89,6.875,16.118,15.325,16.118c1.066,0,2.11-0.127,3.151-0.357c0.913-0.201,1.725,0.24,2.245,1.063
		c0.244,0.385,0.38,0.775,0.375,1.238c-0.002,0.652-0.453,1.217-1.087,1.365C24.923,39.76,23.357,40,21.781,40
		C11.295,40,2.764,31.027,2.764,19.997C2.764,8.972,11.295,0,21.781,0c10.486,0,19.018,8.971,19.018,19.997v-0.025
		c0,6.616-2.203,14.343-8.181,14.343c-2.712,0-4.311-1.605-5.101-3.426l-0.005-0.01c-1.578,1.502-3.77,2.465-6.072,2.465
		c-4.84,0-8.803-3.803-8.803-8.984v-6.224c0-1.52,0.916-2.373,2.163-2.373c1.254,0,2.175,0.854,2.175,2.373v5.972
		c0,2.814,1.707,5.041,4.465,5.041c2.636,0,4.43-2.359,4.43-5.041l0.001-5.972c0-1.52,0.925-2.373,2.187-2.373
		c1.235,0,2.154,0.854,2.154,2.373v5.679c0,0.803,0.029,1.598,0.078,2.393c0.042,0.641,0.109,1.291,0.157,1.744"/>
</g>
</svg>
