<svg xmlns="http://www.w3.org/2000/svg" viewBox="0 0 44.793 45.68">
  <defs>
    <style>
      .cls-1 {
        fill: #005aa1;
      }

      .cls-2 {
        fill: #f60;
      }

      .cls-3 {
        fill: #25a9e0;
      }
    </style>
  </defs>
  <g id="XMLID_2_" transform="translate(0 0)">
    <g id="XMLID_11_" transform="translate(11.411 9.797)">
      <g id="XMLID_12_">
        <path id="XMLID_14_" class="cls-1" d="M137.914,278.265a2.808,2.808,0,1,1-2.807-2.865,2.85,2.85,0,0,1,2.807,2.865" transform="translate(-132.3 -275.4)"/>
        <path id="XMLID_13_" class="cls-1" d="M240.329,278.265a2.815,2.815,0,1,1-2.807-2.865,2.84,2.84,0,0,1,2.807,2.865" transform="translate(-219.162 -275.4)"/>
      </g>
    </g>
    <path id="XMLID_5_" class="cls-2" d="M89.693,243.021a4.917,4.917,0,0,0,.44,1.767,2.088,2.088,0,0,0,2.124,1.249c4.233,0,5.326-7.923,5.326-12.113v.03A18.075,18.075,0,1,0,79.5,252.361a16.949,16.949,0,0,0,3.718-.411,2.711,2.711,0,0,1,3.08,2.621,1.608,1.608,0,0,1-1.275,1.554,26.952,26.952,0,0,1-5.523.655,22.844,22.844,0,1,1,22.4-22.84v-.03c0,7.557-2.595,16.38-9.635,16.38a6.262,6.262,0,0,1-6.009-3.916v-.015a10.712,10.712,0,0,1-7.147,2.819,10.165,10.165,0,0,1-10.364-10.254v-7.1a2.561,2.561,0,1,1,5.114,0v6.811c0,3.215,2.018,5.76,5.265,5.76,3.111,0,5.22-2.7,5.22-5.76v-6.811a2.561,2.561,0,1,1,5.114,0v6.491c0,.914.03,1.813.091,2.727.046.731.137,1.478.182,2" transform="translate(-57.1 -211.1)"/>
    <path id="XMLID_4_" class="cls-3" d="M258.1,420.8" transform="translate(-227.601 -388.848)"/>
    <path id="XMLID_3_" class="cls-3" d="M271.9,420.7" transform="translate(-239.307 -388.764)"/>
  </g>
</svg>
